<svg width="100" height="100" xmlns="http://www.w3.org/2000/svg" xmlns:svg="http://www.w3.org/2000/svg">
 <!-- Created with SVG-edit - http://svg-edit.googlecode.com/ -->
 <g>
  <title>Layer 1</title>
  <path d="m39.03125,16.67188c0.5625,1.19531 1.22646,1.53261 2.00102,1.91637c0.77354,0.38325 1.39165,0.77224 2.57935,0.96441c0.73257,0.11853 1.74781,0.06497 2.50713,0.07425c1.01267,0.01238 2.02544,0.08773 2.78438,0.17754c0.75983,0.08991 1.77118,0.20326 2.51775,0.22725c0.91764,0.02948 1.99305,0.00093 2.92451,0.01526c0.7837,0.01205 1.66439,0.17823 2.48956,0.30199c0.83921,0.12587 1.68694,0.11953 2.68594,0.11981c0.91455,0.00026 1.773,0 2.7135,0c0.77456,0 1.79409,0 2.58019,0c0.99696,0 1.89056,0.00216 2.76356,0c0.9107,-0.00225 1.73329,-0.193 2.52534,-0.57255c0.82229,-0.39404 1.74351,-0.53206 2.31891,-1.12563c0.55154,-0.56897 0.60375,-1.63098 0.34988,-2.44687c-0.26115,-0.83928 -1.29365,-1.10927 -2.18468,-1.28806c-0.8484,-0.17023 -1.74973,-0.05126 -2.65113,-0.05126c-0.88818,0 -1.76661,-0.02671 -2.66906,0.17944c-0.79646,0.18193 -1.67213,0.41261 -2.61113,0.594c-0.83131,0.16058 -1.81846,0.00094 -2.5271,0.39164c-0.79696,0.43939 -1.53238,0.84435 -2.36609,1.18448c-0.76579,0.31243 -1.50206,0.91125 -2.36306,1.02094c-0.86781,0.11055 -1.76341,0.25684 -2.49637,0.71663c-0.7662,0.48063 -1.26698,1.05471 -2.31525,1.47748c-0.73334,0.29575 -1.60293,0.56834 -2.33838,0.91006c-0.87571,0.40688 -1.71331,0.57299 -2.53343,1.04991c-0.86047,0.50038 -1.37744,1.08347 -2.14875,1.49738c-0.79598,0.42715 -1.59712,0.9154 -2.12625,1.27294c-0.94722,0.64005 -1.54446,0.99015 -2.4345,1.55081c-0.75982,0.47862 -1.56062,0.97912 -2.29612,1.45216c-0.56656,0.36438 -1.3706,1.03078 -2.00918,1.50996c-0.89557,0.67202 -1.59136,0.98843 -2.22982,1.39219c-0.94277,0.5962 -1.45833,1.15924 -2.25787,1.74586c-0.60853,0.44647 -1.60642,0.72582 -2.1645,1.36251c-0.61528,0.70194 -1.15117,1.30075 -1.50131,2.16225c-0.37403,0.92025 -0.34365,1.75736 -0.82399,2.50692c-0.48455,0.75614 -0.95811,1.44131 -1.15657,2.43183c-0.15342,0.76572 -0.26207,1.65165 -0.42188,2.53125c-0.18567,1.02196 -0.28836,1.77601 -0.45084,2.65971c-0.17643,0.95958 -0.2687,1.74534 -0.27309,2.64185c-0.00384,0.78412 0,1.58175 0,2.69437c0,0.96188 0,1.68258 0,2.7045c0,0.85894 -0.06333,1.51414 0.0045,2.58075c0.06033,0.94855 0.48769,1.79381 0.84804,2.51451c0.41309,0.82617 0.74048,1.495 1.18652,2.37305c0.38304,0.75403 0.7476,1.61133 1.51376,2.18974c0.64117,0.48405 1.60186,0.84917 2.2083,1.1937c0.96802,0.54995 1.66875,0.9007 2.67638,1.3275c0.50159,0.21246 1.49749,0.578 2.46094,0.84375c0.68074,0.18777 1.37476,0.33263 2.39063,0.49219c0.86835,0.13639 1.79629,0.24741 2.41875,0.30151c1.17757,0.10233 1.98454,0.11552 2.73318,0.11981c1.15015,0.0066 1.99392,0.00056 2.95425,0.00056c0.7065,0 1.72406,0 2.59137,0c0.93945,0 1.73707,0 2.70893,0c0.87539,0 1.7872,0 2.58202,0c0.99788,0 1.84613,0 2.76497,0c0.89691,0 1.77779,0.00208 2.59531,0c0.88404,-0.00225 1.90562,-0.09057 2.61992,-0.33806c0.9159,-0.31734 1.75191,-0.52469 2.64262,-0.74812c0.84839,-0.21282 1.64777,-0.57542 2.53835,-0.60132c0.85611,-0.02489 1.83112,-0.03358 2.51796,-0.6795c0.64516,-0.60671 1.1236,-1.10848 1.91925,-1.43044c0.75637,-0.30606 1.42313,-1.00214 1.63519,-1.76513c0.24484,-0.88095 -0.69272,-1.18744 -1.63189,-1.18744c-0.88586,0 -1.74782,-0.12985 -2.6673,0.00056c-0.78201,0.11091 -1.51889,0.75756 -2.1529,1.39352c-0.63837,0.64034 -1.15179,1.33839 -1.63723,2.08498c-0.46213,0.71075 -0.97973,1.56312 -1.36913,2.22188c-0.46149,0.78074 -0.91407,1.6021 -1.4355,2.31468c-0.42924,0.58659 -0.98452,1.42158 -1.43649,2.18771c-0.46895,0.79493 -0.71494,1.67402 -1.3848,2.24198c-0.63913,0.54191 -1.36091,1.00472 -2.0044,1.58231c-0.70139,0.62956 -1.51319,0.97546 -2.36756,1.36462c-0.63646,0.28991 -1.55874,0.76646 -2.2545,1.278c-0.73003,0.53673 -1.30579,1.29781 -2.18194,1.46658c-0.9122,0.17572 -1.68911,0.36555 -2.46206,0.76936c-0.84844,0.44324 -1.64891,0.44209 -2.63383,0.71979c-0.795,0.22415 -1.66303,0.57284 -2.61035,0.69434l-0.76669,0.31557l-0.88819,0.036l-0.68857,0.37062" id="svg_11" stroke-linecap="null" stroke-linejoin="null" stroke-dasharray="null" stroke-width="5" stroke="#000000" fill="none"/>
 </g>
</svg>