<svg width="100" height="100" xmlns="http://www.w3.org/2000/svg" xmlns:svg="http://www.w3.org/2000/svg">
 <!-- Created with SVG-edit - http://svg-edit.googlecode.com/ -->
 <g>
  <title>Layer 1</title>
  <path d="m67,23c1.70983,0 2.51733,0 3.45834,0c0.89883,0 1.83136,0.14878 2.489,-0.35267c0.67685,-0.51609 1.04733,-1.25795 1.05267,-2.14733c0.00539,-0.89998 0,-1.8 0,-2.7c0,-0.9 0.0372,-1.80087 0,-2.6c-0.04272,-0.91765 -0.83583,-1.00372 -1.7,-1.25717c-0.87743,-0.25733 -1.60855,-0.80732 -2.5,-0.94417c-0.91577,-0.14058 -1.45409,-0.80853 -2.4,-0.988c-0.88429,-0.16777 -1.8,-0.01067 -2.6955,-0.01067c-0.926,0 -1.80888,-0.08868 -2.7045,0c-0.8457,0.08374 -1.54667,0.67033 -1.94283,1.35717c-0.46984,0.81457 -0.72769,1.44969 -1.03633,2.16367c-0.34895,0.80722 -0.02083,1.77917 -0.02083,2.67917c0,0.9 -0.0372,1.80087 0,2.6c0.04271,0.91765 0.93177,0.80705 1.71467,1.28533c0.80324,0.49071 1.38533,0.91467 2.28533,0.91467c0.8,0 1.72649,-0.18374 2.6,0.036c0.86283,0.21706 1.59697,0.92129 2.5,0.964c0.89899,0.04252 1.73334,0 2.60983,0c0.8075,0 1.79017,0 2.6115,0c0.85333,0 2.05733,0.26667 2.05733,0c0,-0.87867 -1.89243,-0.11604 -2.57867,0.568c-0.49978,0.49817 -1.09596,1.35588 -1.99867,1.432c-0.86036,0.07255 -1.64604,0.46621 -2.31866,0.716c-0.87109,0.32349 -1.62772,0.43846 -2.82133,0.852c-0.38268,0.13258 -1.19687,0.45058 -2.065,0.72667c-1.25472,0.39904 -2.02364,0.55005 -2.72433,0.644c-0.96061,0.12881 -1.8757,0.21091 -2.772,0.414c-0.90406,0.20484 -1.49286,0.4127 -2.7,0.562c-0.59747,0.07389 -1.50001,0.07877 -2.69967,0.0855c-0.59134,0.00332 -1.46418,-0.11652 -2.5575,0.22116c-0.79863,0.24666 -1.64132,0.62283 -2.49017,0.83133c-0.92683,0.22766 -1.44157,0.69461 -2.42067,1.14734c-0.71804,0.33202 -1.50256,0.53218 -2.42216,1.1c-0.72676,0.44875 -1.47403,0.98062 -2.15717,1.4c-0.78113,0.47955 -1.34169,1.06163 -1.95717,1.94817c-0.44798,0.64528 -1.26236,1.00595 -1.98566,1.45717c-0.72263,0.4508 -0.69732,1.45773 -1.14584,2.26933c-0.47029,0.85099 -0.93589,1.46772 -1.364,2.14133c-0.55391,0.87155 -1.15728,1.68097 -1.2,2.58384c-0.04005,0.84655 0,1.66183 0,2.55283c0,0.86333 -0.12859,2.04794 0.61066,2.33667c0.84786,0.33113 1.71117,0.01067 2.672,0.01067c1.05067,0 1.68667,0 2.37867,0c1.0905,0 2.172,0 2.85067,0c0.9255,0 1.716,0 2.68267,0c0.77333,0 1.80616,0 2.51867,0c1.11967,0 1.99117,0 2.88667,0c0.9,0 1.81067,0 2.72134,0c0.85333,0 1.79333,0 2.67867,0c0.75717,0 1.65267,0 2.516,0c0.984,0 1.968,0 2.65867,0c0.94,0 2.05197,0.25862 2.704,-0.22133c0.69827,-0.51398 1.22911,-1.18092 1.696,-1.804c0.46127,-0.61559 -0.37599,-0.974 -1.27466,-0.97467c-0.936,-0.00069 -1.784,0 -2.64733,0c-1.006,0 -1.78657,0.34798 -2.454,0.716c-0.82414,0.45443 -1.79253,0.21984 -2.39867,0.852c-0.61047,0.63669 -1.20505,1.3142 -2.1045,1.4365c-0.86929,0.1182 -1.57885,0.36219 -2.2115,0.88216c-0.81326,0.66842 -1.09501,1.51663 -1.984,2.0925c-0.74261,0.48105 -1.57762,0.95889 -1.97917,1.54166c-0.50761,0.73671 -0.37487,1.71909 -0.80616,2.59383c-0.3789,0.76847 -1.07496,1.30531 -1.632,2.084c-0.49995,0.69888 -1.52193,0.6927 -2.06184,1.32217c-0.56254,0.65586 -0.95994,1.5727 -1.02083,2.45383c-0.05699,0.82469 -0.09633,1.71142 -0.85067,2c-0.95901,0.36689 -1.14933,1.12533 -1.14933,2.02533c0,0.8 -0.2358,1.72996 0,2.64283c0.22868,0.88533 1.02083,1.37801 1.51733,1.8745c0.7255,0.7255 1.3287,1.23817 1.98267,2.0035c0.64987,0.76053 0.8852,1.61755 1.66667,2.14583c0.59528,0.40241 1.43466,0.332 2.43333,0.33334c0.8,0.00107 1.991,0 2.68567,0c1.001,0 1.881,0 2.71433,0c0.97883,0 1.80983,0 2.768,0c0.732,0 1.464,0 2.56,0c0.9675,0 1.84134,0.00008 2.69283,0c0.95767,-0.00008 1.93167,0.08775 2.54317,-0.61066c0.58292,-0.66577 0.69064,-1.95824 0,-2.35333c-0.75061,-0.4294 -1.764,-0.036 -2.664,-0.036c-0.9,0 -1.7,0 -2.61467,0c-0.932,0 -1.768,0 -2.5755,0c-1.067,0 -2.13402,-0.22768 -2.5885,0.44283c-0.42464,0.6265 -0.361,1.70881 -0.92267,2.35583c-0.64895,0.74757 -1.22009,1.40328 -1.89867,1.84416c-0.79234,0.51479 -1.16557,1.21817 -1.84167,1.83633c-0.64644,0.59105 -1.66494,0.43227 -2.397,0.94617c-0.65766,0.46166 -1.4774,0.67051 -2.12267,1.14934c-0.59885,0.44438 -1.4616,0.33805 -2.4595,0.44617c-1.03526,0.11217 -1.72578,0.41858 -2.47383,0.6265c-1.0321,0.28687 -1.81066,0.35042 -2.77333,0.35267c-0.73199,0.00171 -1.89867,0 -2.69033,0c-0.84167,0 -1.74299,-0.04852 -2.64183,0.00017c-0.78862,0.04272 -1.73522,0.45933 -2.3615,0.64716c-0.94566,0.28362 -1.77394,0.33078 -2.64283,0.34817c-1.19494,0.02392 -1.7865,0.0045 -2.6235,0.0045l-1.12917,0l-0.891,0" id="svg_4" stroke-linecap="null" stroke-linejoin="null" stroke-dasharray="null" stroke-width="5" stroke="#000000" fill="none"/>
 </g>
</svg>