<svg width="100" height="100" xmlns="http://www.w3.org/2000/svg" xmlns:svg="http://www.w3.org/2000/svg">
 <!-- Created with SVG-edit - http://svg-edit.googlecode.com/ -->
 <g>
  <title>Layer 1</title>
  <path d="m51.6875,32.70313c1.30957,0.22852 2.24957,0.49361 2.91698,0.69722c0.96743,0.29513 1.97361,0.57383 2.72264,0.71747c0.69805,0.13387 1.8393,0.26028 2.54307,0.27225c0.99886,0.017 1.94043,0.11453 2.85637,-0.06975c0.87192,-0.17542 1.73372,-0.14999 2.52563,-0.62438c0.74944,-0.44894 1.22807,-1.27747 1.44337,-2.08519c0.23396,-0.87769 0.22513,-1.78827 0.17944,-2.65556c-0.04675,-0.88731 -0.44511,-1.66237 -1.04794,-2.36306c-0.55813,-0.64874 -0.93168,-1.39322 -1.65396,-2.04926c-0.62078,-0.56385 -1.45457,-1.06211 -2.29029,-1.40224c-0.71708,-0.29185 -1.49078,-0.73135 -2.24887,-1.233c-0.74844,-0.49527 -1.58471,-0.57507 -2.53294,-0.83475c-0.76244,-0.2088 -1.63672,-0.549 -2.52288,-0.60033c-0.88636,-0.05134 -1.67393,-0.0038 -2.67089,-0.0038c-0.89417,0 -1.83691,0 -2.74198,0c-0.85275,0 -1.76681,0 -2.62455,0c-0.91751,0 -1.6911,0.20325 -2.6157,0.40669c-0.86537,0.1904 -1.76955,0.1093 -2.56465,0.44585c-0.73572,0.31142 -1.43132,0.77433 -2.37748,0.83496c-0.87739,0.05622 -1.19344,0.72875 -1.75894,1.23019c-0.62851,0.55731 -1.04062,1.35349 -1.64588,1.71844c-0.71914,0.43361 -1.01745,1.19023 -1.69425,1.77637c-0.64122,0.55532 -1.52784,0.99732 -1.97325,1.73869c-0.43141,0.71806 -0.90716,1.43457 -1.27237,2.22884c-0.3853,0.83797 -0.79849,1.51278 -1.12162,2.3561c-0.31705,0.82744 -0.35503,1.72022 -0.68063,2.52168c-0.32144,0.79124 -0.70742,1.78234 -0.75586,2.46094c-0.07211,1.01001 -0.01758,1.84106 -0.01758,2.74837c0,0.79481 -0.02529,1.82347 0.00113,2.68706c0.02408,0.78714 0.29533,1.67471 0.675,2.3625c0.50315,0.91148 0.8412,1.59341 1.41708,2.40954c0.47627,0.67496 1.21512,1.42422 1.89211,1.93802c0.70684,0.53645 1.50584,1.02737 2.13377,1.37257c0.8312,0.45694 1.69144,0.8132 2.31842,1.11424c1.06311,0.51046 1.63958,0.94533 2.64888,1.2453c0.718,0.2134 1.71431,0.27932 2.61274,0.51701c0.73613,0.19475 1.73923,0.48228 2.50088,0.63394c0.75727,0.15079 1.77153,0.31394 2.54475,0.43707c0.81765,0.1302 2.03806,0.29886 2.71097,0.37779c0.69229,0.08121 1.72454,0.19129 2.69051,0.24595c0.86695,0.04906 1.66683,0.05031 2.68502,0.05126c0.75938,0.00071 1.51875,0 2.53097,0c0.97762,0 1.99715,0 2.79704,0c0.87771,0 1.64025,0 2.64543,0c0.85275,0 1.79185,0.00003 2.67399,0c0.94507,-0.00004 1.90366,0.0143 2.59039,-0.46406c0.71539,-0.49832 1.04207,-1.39191 1.23869,-2.27138c0.19395,-0.8675 0.036,-1.75163 0.036,-2.67862c0,-0.85556 0.20863,-1.80932 -0.00056,-2.64994c-0.21735,-0.87344 -1.18064,-1.09632 -2.01151,-1.45744c-0.70232,-0.30525 -1.32858,-1.06495 -2.277,-1.377c-0.83482,-0.27467 -1.59897,-0.43027 -2.4828,-0.49029c-0.89969,-0.0611 -1.83438,-0.0019 -2.65401,-0.0019c-0.97446,0 -1.80668,0 -2.73818,0c-0.84487,0 -2.08462,-0.3356 -2.08462,0c0,0.79987 1.7861,-0.02323 2.6633,0c0.91102,0.02412 1.59858,0.7149 2.35013,0.86407c0.87054,0.17279 1.76893,0.40673 2.40089,1.00568c0.63605,0.60282 1.58036,0.70907 2.27813,1.20375c0.70934,0.50288 1.04261,1.34851 1.53281,2.05931c0.46722,0.6775 0.36547,1.62392 0.52819,2.41256c0.19082,0.92485 0.38587,1.77806 0.38587,2.64994c0,0.91406 -0.45271,1.50343 -0.85254,2.04785c-0.53484,0.72825 -0.76712,1.6068 -1.19383,2.26934c-0.48827,0.75812 -0.71339,1.51875 -1.32863,2.15156c-0.61523,0.63281 -0.92406,1.53124 -1.54096,2.17378c-0.60465,0.62978 -1.25742,1.27779 -1.91841,1.91833c-0.58187,0.56387 -1.24968,1.04501 -2.03379,1.6032c-0.68874,0.4903 -1.46518,0.72991 -2.31152,1.2832c-0.8008,0.52351 -1.3554,1.19301 -2.15044,1.68286c-0.66125,0.40742 -1.32102,1.03001 -2.08589,1.46362c-0.83709,0.47456 -1.49156,0.78796 -2.38711,1.03332c-0.87791,0.24052 -1.70359,0.63551 -2.63812,0.79369c-0.65493,0.11086 -1.77909,0.13077 -2.56725,0.25088c-0.73739,0.11237 -1.6913,0.22982 -2.65444,0.24187c-0.96911,0.01213 -1.8855,0.00056 -2.64487,0.00056c-0.99492,0 -1.95366,0.32677 -2.76251,-0.00189c-0.61513,-0.24995 0.2822,-0.83746 1.1172,-0.84186c0.91293,-0.00481 1.82306,0 2.70281,0c0.81506,0 1.68727,-0.04203 2.69683,0.0038c0.78439,0.03561 1.75809,0.29639 2.44554,0.49627c0.94359,0.27436 1.84943,0.4929 2.51297,0.66122c1.15573,0.29317 1.866,0.53085 2.56416,0.7439c1.03363,0.31541 1.75897,0.51154 2.77903,0.90141c0.56157,0.21464 1.7146,0.56847 2.28642,0.67275c0.95796,0.1747 1.66251,0.26247 2.78655,0.45303c0.78838,0.13365 1.59198,0.28973 2.40849,0.4088c1.21313,0.17691 2.00858,0.23148 2.78501,0.27808c0.7592,0.04558 1.5069,0.05389 2.93625,0.261c0.69482,0.10068 1.36121,0.2822 2.66624,0.46349c0.62106,0.08628 1.5116,0.13019 2.32426,0.1395c1.13112,0.01296 1.85062,0.02525 2.87325,0.18056l0.81211,0.19118l0.91125,0.05125" id="svg_6" stroke-linecap="null" stroke-linejoin="null" stroke-dasharray="null" stroke-width="5" stroke="#000000" fill="none"/>
 </g>
</svg>