<svg width="100" height="100" xmlns="http://www.w3.org/2000/svg" xmlns:svg="http://www.w3.org/2000/svg">
 <!-- Created with SVG-edit - http://svg-edit.googlecode.com/ -->
 <g>
  <title>Layer 1</title>
  <path fill="none" stroke="#000000" stroke-width="5" id="svg_1" d="m48,15c-1.71467,1.084 -2.43845,1.69687 -2.87867,2.44267c-0.36687,0.62153 -0.83905,1.41669 -1.11067,2.168c-0.30964,0.85646 -0.21933,1.71609 -0.58533,2.528c-0.39106,0.86752 -0.42533,1.72267 -0.42533,2.69467c0,0.756 0,1.66667 0,2.56667c0,0.9 0,1.8 0,2.7c0,0.9 0,1.7 0,2.6c0,0.9 0,1.77917 0,2.74283c0,0.7425 0,1.8045 0,2.72383c0,0.83333 0,1.66666 0,2.52883c0,0.9045 0,1.8045 0,2.7045c0,0.9 0,1.8 0,2.70016c0,0.78517 0,1.72517 0,2.73317c0,0.805 0.02296,1.70865 -0.00134,2.65067c-0.01783,0.69131 -0.38259,1.58381 -0.71466,2.4c-0.36297,0.89213 -0.284,1.78267 -0.284,2.63683c0,0.88984 0,1.8005 0,2.65384c0,0.93867 0,1.85067 0,2.62667c0,0.89867 0,1.79866 0,2.69867c0,0.9 0.00017,1.8 0,2.7c-0.00017,0.89983 -0.44987,1.6396 -1.14933,1.78934c-0.86236,0.18461 -1.45835,0.74984 -1.81467,1.44666c-0.43455,0.84982 -0.44712,1.6669 -1.09733,2.13866c-0.71237,0.51688 -1.76326,0.36971 -2.224,0.99333c-0.49849,0.67473 -1.22714,1.26424 -1.71467,1.95284c-0.49657,0.70136 -0.78394,1.65755 -1,2.45833c-0.23404,0.86744 -1.16984,1.17957 -1.82533,1.44617c-0.69413,0.28231 -1.74983,0.48801 -2.37467,1.14268c-0.60901,0.63808 -1.19784,1.39597 -2.1,1.432c-0.89928,0.0359 -2.04738,0.38942 -2.5785,-0.2215c-0.58188,-0.66929 -0.1215,-1.7785 -0.1215,-2.57851c0,-0.89999 0.23079,-1.67952 0.716,-2.36933c0.50507,-0.71803 0.56334,-1.69595 1.48267,-1.83067c0.79604,-0.11665 1.01656,-0.93911 1.90133,-1c0.89787,-0.0618 1.7,0 2.61467,0c0.85467,0 1.63717,0 2.64934,0c0.936,0 1.83469,-0.00645 2.74583,0c0.75156,0.00533 1.7339,0.14717 2.411,0.52084c0.82586,0.45576 1.72238,0.89153 2.47383,1.12199c0.85466,0.26212 1.80267,0.3565 2.70533,0.35717c0.9,0.00066 1.71087,-0.01903 2.62133,0.00018c0.85389,0.018 1.76138,0.34966 2.43133,0.64716c0.86575,0.38445 1.76333,0.352 2.7265,0.35267c0.92083,0.00064 1.82533,0 2.6875,0c0.83333,0 1.812,0 2.586,0c0.8955,0 1.914,0 2.694,0c0.8745,0 1.692,0 2.72133,0c0.85283,0 1.8105,0 2.63067,0c0.90133,0 1.72216,0 2.684,0c0.8075,0 1.85066,0 2.53817,0c1.09383,0 1.97916,0 2.77916,0c0.9,0 1.8,0 2.7,0l0.89999,0"/>
 </g>
</svg>