<svg width="100" height="100" xmlns="http://www.w3.org/2000/svg" xmlns:svg="http://www.w3.org/2000/svg">
 <!-- Created with SVG-edit - http://svg-edit.googlecode.com/ -->
 <g>
  <title>Layer 1</title>
  <path stroke="#000000" d="m12.03125,82.36546c1.34546,-0.55605 2.36064,-1.01275 3.09278,-1.39295c1.05038,-0.54547 1.6846,-1.10867 2.50016,-1.77513c0.79085,-0.64626 1.54999,-1.34019 2.26809,-2.04659c0.7181,-0.7064 1.52735,-1.3253 2.07351,-2.0491c0.61188,-0.81089 1.19919,-1.58198 1.7416,-2.30679c0.62818,-0.83942 1.17219,-1.61597 1.74287,-2.44565c0.52296,-0.76031 0.69806,-1.88057 1.15916,-2.71398c0.46484,-0.84017 1.10384,-1.5412 1.63605,-2.39249c0.53221,-0.85128 1.26567,-1.63019 1.74859,-2.50194c0.46341,-0.83652 0.47544,-1.94204 0.97436,-2.73204c0.56329,-0.89193 1.38316,-1.43715 2.03576,-2.29194c0.48568,-0.63615 1.01181,-1.57811 1.55879,-2.3745c0.56345,-0.82035 1.12787,-1.57911 1.30254,-2.63681c0.15377,-0.93115 0.18868,-2.04316 0.35163,-2.89663c0.18472,-0.96751 0.40419,-2.03802 0.57226,-2.94854c0.19836,-1.07462 0.38834,-1.92019 0.48969,-2.91328c0.10403,-1.01938 0.02726,-2.00367 0.02726,-2.91273c0,-1.11399 0,-2.0842 0,-3.08654c0,-1.00828 0.09461,-1.88249 -0.01717,-2.85722c-0.12043,-1.05016 -0.54889,-1.94535 -0.80117,-2.90601c-0.25164,-0.95816 -0.40668,-1.88221 -0.75539,-2.80898c-0.35747,-0.95003 -0.63291,-1.79806 -0.79863,-2.9286c-0.14388,-0.98161 -0.26771,-1.90441 -0.49024,-2.94854c-0.19547,-0.91719 -0.73317,-1.74158 -0.97548,-2.5824c-0.30093,-1.04428 -0.70109,-1.91414 -1.03635,-2.80929c-0.32815,-0.87616 -0.37134,-1.93322 -0.37134,-1.48553c0,0.92822 -0.26108,1.89353 -0.44963,2.88748c-0.18102,0.95426 -0.02726,1.92626 -0.02726,2.9089c0,1.00023 0.00512,2.0047 0,2.96019c-0.00497,0.9285 -0.37502,1.90627 -0.47689,2.96128c-0.09031,0.93527 0.05631,1.88906 -0.33637,2.87278c-0.39352,0.98586 -0.58634,1.8095 -0.78559,2.78576c-0.2108,1.03283 -0.21634,2.01114 -0.33597,2.88591c-0.1401,1.02453 -0.44708,1.93118 -0.44962,3.01954c-0.00221,0.94573 -0.2144,1.83692 -0.4362,2.81531c-0.22014,0.97109 -0.0407,1.96903 -0.0407,2.98912c0,0.9283 0,1.94346 0,2.97551c0,0.93823 0,1.94346 0,2.94917c0,1.0308 0,2.03909 0,2.97731c0,0.93948 0,1.94487 0,2.98732c0,0.92572 -0.05676,1.94013 0,2.82907c0.06785,1.06272 0.47193,1.99237 0.47689,3.01414c0.00444,0.91352 -0.13605,1.90964 0.10555,3.01226c0.20203,0.92203 0.37562,1.88562 0.60978,2.77794c0.24216,0.92275 0.25829,1.89913 0.88312,2.69655c0.6081,0.77607 1.19689,1.65283 1.81925,2.38552c0.60316,0.71008 1.51682,1.01431 2.61621,1.01642c1.00147,0.00191 1.99372,0 2.97229,0c1.06377,0 2.04553,0 3.05907,0c1.00147,0 1.85711,-0.27798 2.70802,-0.92805c0.72697,-0.55539 1.75789,-0.70701 2.62321,-1.18296c0.84505,-0.46481 1.25927,-1.33881 2.01072,-1.97028c0.82162,-0.69043 1.2902,-1.54702 1.95739,-2.21923c0.74882,-0.75444 1.52744,-1.36219 1.94507,-2.2942c0.3586,-0.80027 0.76195,-1.6796 1.00949,-2.5254c0.27083,-0.92535 0.00215,-1.99131 0.00215,-2.94323c0,-0.99522 0.20094,-2.06365 0,-2.99553c-0.17193,-0.79732 -0.95163,-1.37481 -0.95378,-2.40124c-0.00202,-0.9659 -0.28658,-1.94385 -0.47689,-2.77591c-0.21765,-0.95158 0,-0.4222 0,0.56293c0,1.03205 0,2.04847 0,2.9623c0,1.03518 0,1.99843 0,2.96292c0,1.04237 0,1.96778 0,3.00296c0,0.99327 -0.00113,1.94518 0,2.97168c0.00108,0.97396 0.66397,1.65701 1.18229,2.51172c0.46773,0.77127 0.85168,1.66217 1.59956,2.41398c0.59618,0.5993 1.08051,1.50916 1.99387,1.72916c0.94633,0.22794 1.91668,0.34754 2.96195,0.57325c0.95005,0.20515 1.91207,0.48106 2.93254,0.65176c0.92758,0.15517 2.08937,0.2805 2.98088,-0.01689c0.95379,-0.31818 1.8291,-0.90482 2.61843,-1.46801c0.81477,-0.58134 1.68845,-0.88925 2.46751,-1.36654c0.88728,-0.54358 1.2212,-1.55707 1.92241,-2.282c0.66733,-0.68989 0.95877,-1.53737 1.58073,-2.42744c0.57509,-0.82299 1.0174,-1.6291 1.53812,-2.43752c0.54971,-0.85345 0.99954,-1.72695 1.0199,-2.65754c0.02344,-1.07191 -0.17472,-1.91013 0.03434,-2.91367c0.20547,-0.98633 0.87872,-1.91656 0.91943,-2.90663c0.03654,-0.88809 0,-1.86434 0,-2.85847c0,-1.00508 0,-2.01532 0,-3.02016c0,-0.99726 0,-1.99257 0,-3.03463c0,-0.78952 0,-1.90351 0,-2.8716c0,-0.96505 0,-2.0021 0,-3.00695c0,-0.9971 -0.26753,-1.83972 -0.46695,-2.61211c-0.26163,-1.01334 -0.48945,-1.99363 -0.76087,-2.85182c-0.29466,-0.93169 -0.28928,-1.9149 -0.75094,-2.5451c-0.51196,-0.69887 -0.04713,-1.87197 -0.48707,-2.70898c-0.47559,-0.90483 -0.61072,-1.92294 -1.42876,-2.43939c-0.6452,-0.40733 -1.58539,0.4497 -2.06652,1.40734c-0.38601,0.76832 -0.23844,1.86645 -0.23844,2.80491c0,0.95778 0,2.03705 0,3.01148c0,0.98577 0.02457,1.90659 0.23844,2.85245c0.23047,1.01931 0.21853,1.9017 0.44129,2.95331c0.21777,1.02809 0.18586,2.0299 0.35352,2.99858c0.15096,0.8721 0.23129,1.9409 0.66829,2.79154c0.44683,0.86979 0.65546,1.76068 0.88574,2.6777c0.2444,0.97324 0.13037,2.02704 0.29391,2.91617c0.17189,0.93452 1.04368,1.70686 1.33131,2.71695c0.25986,0.91258 -0.03237,1.95034 0.18503,2.92962c0.21917,0.98725 0.66463,1.81663 0.82097,2.86504c0.14671,0.98381 -0.05644,1.95573 0.0279,2.95527c0.08437,1.00009 0.47128,1.8833 0.47625,2.82907c0.00526,1.00232 0,1.98748 0,3.03173c0,0.94823 0,1.98029 0,2.96331c0,0.95028 0,1.98217 0,2.92039c0,0.93597 0.29582,2.04995 0,3.03947c-0.24336,0.81405 -0.64843,1.64031 -0.94869,2.43252c-0.35746,0.94313 -0.72042,1.78951 -1.06441,2.6709l-0.4114,0.76865" id="svg_10" stroke-linecap="null" stroke-linejoin="null" stroke-dasharray="null" stroke-width="5" fill="none"/>
 </g>
</svg>