<svg width="100" height="100" xmlns="http://www.w3.org/2000/svg" xmlns:svg="http://www.w3.org/2000/svg">
 <!-- Created with SVG-edit - http://svg-edit.googlecode.com/ -->
 <g>
  <title>Layer 1</title>
  <path stroke="#000000" d="m14.5625,31.56931c1.16006,0.57898 2.28236,0.58199 3.45098,0.58161c1.17503,-0.0004 2.19464,0.0076 3.28495,-0.04963c1.12095,-0.05885 2.22436,-0.20778 3.2731,-0.32687c1.50265,-0.17064 2.47514,-0.11861 3.62601,-0.37107c0.98098,-0.21519 2.0013,-0.89974 2.80005,-1.78088c0.7818,-0.86244 1.16644,-2.0361 1.42834,-3.19223c0.25957,-1.14583 0.74697,-2.26501 0.84155,-3.48808c0.09734,-1.2588 0.0465,-2.48088 -0.61423,-3.35392c-0.64851,-0.85688 -1.67754,-1.10391 -2.75694,-1.37491c-1.19232,-0.29935 -2.3294,-0.02094 -3.38837,-0.02094c-1.12951,0 -2.37175,0.06016 -3.12738,0.87241c-0.80301,0.86317 -1.01888,2.09503 -1.247,3.29576c-0.20426,1.07512 -0.08907,2.36054 -0.08907,3.6835c0,1.18812 0.02701,2.37489 0.30712,3.58346c0.24933,1.07573 0.42652,2.40427 0.92447,3.45658c0.50946,1.07662 1.08805,2.03761 1.64078,3.24817c0.50256,1.10066 1.13689,2.03697 1.67026,3.08871c0.60515,1.19325 0.96894,2.26114 1.52936,3.34267c0.5027,0.97013 1.32355,1.8889 1.88243,2.94796c0.52847,1.00146 1.46505,1.92473 2.19971,2.72424c0.80164,0.87241 1.68483,1.66543 2.39379,2.61723c0.74519,1.00042 1.28575,1.96834 2.06726,2.81923c0.88303,0.96142 1.95981,1.5249 2.61389,2.50401c0.62795,0.94 0.8223,2.12016 1.52935,3.29692c0.5661,0.9422 1.016,2.02118 1.65672,3.05227c0.59881,0.96365 1.22479,2.03676 1.4508,3.22519c0.22606,1.1887 0.25035,2.45167 0.73252,3.48963c0.50323,1.08331 0.91637,2.1434 0.91637,3.31496c0,1.14635 0,2.41016 0,3.71394c0,1.22136 -0.61296,2.66056 0.03848,3.70132c0.5945,0.94979 0.93183,-0.44588 1.18216,-1.55792c0.27637,-1.22773 0.2781,-2.40937 0.38265,-3.52453c0.1189,-1.26829 0.97951,-2.21346 1.06886,-3.45551c0.07945,-1.10448 -0.07886,-2.35728 0.00009,-3.60915c0.07677,-1.21743 0.88593,-2.13468 1.42505,-3.30264c0.42181,-0.91383 0.8005,-2.20272 1.37677,-3.22112c0.61238,-1.08221 1.39036,-1.95583 1.87815,-3.09347c0.47584,-1.10975 0.93192,-2.21955 1.4744,-3.17488c0.60298,-1.06188 1.44841,-1.92378 2.06218,-2.87003c0.71585,-1.10363 1.38513,-1.94429 2.10021,-2.90609c0.73672,-0.99091 1.54198,-1.80648 2.51226,-2.35706c1.05051,-0.5961 1.85857,-1.51444 2.80147,-2.08805c0.95985,-0.58393 1.96158,-0.99197 3.13638,-1.39227c1.01423,-0.34558 2.15534,-0.27711 3.14456,-0.9011c0.87865,-0.55423 1.77526,-1.23538 2.87238,-1.26014c1.09949,-0.02483 2.07478,-0.47318 3.03448,-0.9581c0.95792,-0.48401 1.91857,-0.95394 2.67739,-1.7453c0.81407,-0.84898 1.97899,-1.14995 2.60026,-2.16114c0.55139,-0.89747 1.10734,-1.7076 1.10734,-2.92896c0,-1.23349 0.58557,-2.73127 -0.09121,-3.67265c-0.63595,-0.88458 -1.35538,-1.35459 -2.36716,-1.9255c-0.96316,-0.54347 -2.05145,-0.86168 -3.22936,-1.07781c-0.90131,-0.16537 -2.17762,-0.07066 -3.23579,-0.07066c-1.06885,0 -2.39468,0 -3.35825,0c-1.25073,0 -2.36083,0 -3.48385,0c-1.07741,0 -2.03279,0.26372 -3.09442,0.61485c-0.99841,0.33022 -1.69455,1.21672 -2.50353,1.95894c-0.81337,0.74625 -1.67982,1.51068 -2.52776,2.10968c-0.9407,0.66453 -1.86738,1.13335 -2.67829,1.76305l-0.89997,0.53275l-1.1223,0" id="svg_7" stroke-linecap="null" stroke-linejoin="null" stroke-dasharray="null" stroke-width="5" fill="none"/>
 </g>
</svg>